D:\school\WTK\thesis\model\3dpredictsim\Results\debug_batch\Pog_s1_tmt_aCst_d00_k800_ig24_act_TTC_GRF.mot
nRows=25
nColumns=19

name D:\school\WTK\thesis\model\3dpredictsim\Results\debug_batch\Pog_s1_tmt_aCst_d00_k800_ig24_act_TTC_GRF.mot
datacolumns 19
datarows 25
range 0.0000000000 0.3172874196
endheader
time 	ground_force_vx	ground_force_vy	ground_force_vz	ground_force_px	ground_force_py	ground_force_pz	1_ground_force_vx	1_ground_force_vy	1_ground_force_vz	1_ground_force_px	1_ground_force_py	1_ground_force_pz	ground_torque_x	ground_torque_y	ground_torque_z	1_ground_torque_x	1_ground_torque_y	1_ground_torque_z
        0.0000000000	      -58.8231304408	       51.1825892957	       15.9378164867	        0.2186343319	        0.0000000000	        0.0486311891	       84.8197473538	      346.2161354962	       -1.4862049917	       -0.3830278124	        0.0000000000	       -0.0313159218	        0.0000000000	        0.0000000000	        0.0000000000	        0.0000000000	        0.0000000000	        0.0000000000	
        0.0132203091	     -106.2818004802	      204.9390391124	       42.5648383604	        0.2249843626	        0.0000000000	        0.0471325588	       43.0677720866	      230.2783620657	      -12.3794466492	       -0.3688711533	        0.0000000000	       -0.0258171829	        0.0000000000	        0.0000000000	        0.0000000000	        0.0000000000	        0.0000000000	        0.0000000000	
        0.0264406183	      -85.1362001821	      481.7519972048	       -0.2042148356	        0.2282185734	        0.0000000000	        0.0458780968	       25.4843423492	      180.6066211047	      -14.4525763512	       -0.3634503887	        0.0000000000	       -0.0233625970	        0.0000000000	        0.0000000000	        0.0000000000	        0.0000000000	        0.0000000000	        0.0000000000	
        0.0396609274	     -106.5213897389	      700.4475725177	      -14.4467833863	        0.2326385067	        0.0000000000	        0.0464118491	       20.9436810547	      135.6367840171	      -15.0059828998	       -0.3630721359	        0.0000000000	       -0.0234694872	        0.0000000000	        0.0000000000	        0.0000000000	        0.0000000000	        0.0000000000	        0.0000000000	
        0.0528812366	     -160.6888805461	      885.0525121641	      -20.8134635614	        0.2427404264	        0.0000000000	        0.0488062794	        7.5474156447	       77.4385339648	      -14.2218659167	       -0.3630999004	        0.0000000000	       -0.0237861519	        0.0000000000	        0.0000000000	        0.0000000000	        0.0000000000	        0.0000000000	        0.0000000000	
        0.0661015457	     -177.3173526592	      937.2505246765	      -21.0427773749	        0.2497339172	        0.0000000000	        0.0502841210	       -8.4237894455	       14.6352707586	       -3.6440402482	       -0.3668086199	        0.0000000000	       -0.0236650669	        0.0000000000	        0.0000000000	        0.0000000000	        0.0000000000	        0.0000000000	        0.0000000000	
        0.0793218549	     -161.8538758853	      903.0160632698	      -19.3540521175	        0.2544261400	        0.0000000000	        0.0511303083	        0.5087902904	       -0.4145612678	       -0.0301042289	        0.0000000000	        0.0000000000	        0.0000000000	        0.0000000000	        0.0000000000	        0.0000000000	        0.0000000000	        0.0000000000	        0.0000000000	
        0.0925421640	     -141.4966650620	      834.7242641896	      -17.5332145490	        0.2581489912	        0.0000000000	        0.0516243560	       -6.6480378469	        4.6990337980	        0.4718829761	        0.0000000000	        0.0000000000	        0.0000000000	        0.0000000000	        0.0000000000	        0.0000000000	        0.0000000000	        0.0000000000	        0.0000000000	
        0.1057624732	     -124.0589529211	      780.3430917209	      -16.6532651821	        0.2618634338	        0.0000000000	        0.0518119280	       -5.4496077130	        3.3804945254	        0.4601348260	        0.0000000000	        0.0000000000	        0.0000000000	        0.0000000000	        0.0000000000	        0.0000000000	        0.0000000000	        0.0000000000	        0.0000000000	
        0.1189827823	     -108.1425026726	      738.9109140384	      -16.4826255642	        0.2657074564	        0.0000000000	        0.0518115845	       -3.6226591483	        2.0515793223	        0.3156245273	        0.0000000000	        0.0000000000	        0.0000000000	        0.0000000000	        0.0000000000	        0.0000000000	        0.0000000000	        0.0000000000	        0.0000000000	
        0.1322030915	      -95.6583093061	      707.3507570368	      -16.6733186843	        0.2701038723	        0.0000000000	        0.0516607350	       -2.8520833865	        1.5064473466	        0.2454137280	        0.0000000000	        0.0000000000	        0.0000000000	        0.0000000000	        0.0000000000	        0.0000000000	        0.0000000000	        0.0000000000	        0.0000000000	
        0.1454234006	      -84.7982112105	      683.1206231033	      -17.5166716445	        0.2750563232	        0.0000000000	        0.0513338398	       -2.1653831466	        1.0854672886	        0.1865233837	        0.0000000000	        0.0000000000	        0.0000000000	        0.0000000000	        0.0000000000	        0.0000000000	        0.0000000000	        0.0000000000	        0.0000000000	
        0.1586437098	      -73.9810427108	      660.1347708042	      -18.1495714340	        0.2799093680	        0.0000000000	        0.0510685867	       -1.6417421799	        0.7945311488	        0.1327143851	        0.0000000000	        0.0000000000	        0.0000000000	        0.0000000000	        0.0000000000	        0.0000000000	        0.0000000000	        0.0000000000	        0.0000000000	
        0.1718640189	      -63.8662286984	      638.2476418966	      -18.7772156202	        0.2844715057	        0.0000000000	        0.0509109546	       -1.3144225101	        0.6182147544	        0.1019093915	        0.0000000000	        0.0000000000	        0.0000000000	        0.0000000000	        0.0000000000	        0.0000000000	        0.0000000000	        0.0000000000	        0.0000000000	
        0.1850843281	      -54.6502896595	      619.3976574224	      -19.0415799809	        0.2888829247	        0.0000000000	        0.0508439611	       -1.1240560296	        0.5159580157	        0.0836898251	        0.0000000000	        0.0000000000	        0.0000000000	        0.0000000000	        0.0000000000	        0.0000000000	        0.0000000000	        0.0000000000	        0.0000000000	
        0.1983046372	      -47.5455094893	      604.6159745553	      -19.3146409546	        0.2932939239	        0.0000000000	        0.0508138917	       -1.0199454312	        0.4588886819	        0.0732404139	        0.0000000000	        0.0000000000	        0.0000000000	        0.0000000000	        0.0000000000	        0.0000000000	        0.0000000000	        0.0000000000	        0.0000000000	
        0.2115249464	      -41.3954309594	      594.2638887277	      -19.3319925773	        0.2978143234	        0.0000000000	        0.0507902798	       -0.9703126257	        0.4286699201	        0.0676260766	        0.0000000000	        0.0000000000	        0.0000000000	        0.0000000000	        0.0000000000	        0.0000000000	        0.0000000000	        0.0000000000	        0.0000000000	
        0.2247452555	      -35.9453162754	      586.9418892729	      -18.8448724347	        0.3024111768	        0.0000000000	        0.0507598824	       -0.9797995014	        0.4252800530	        0.0663737185	        0.0000000000	        0.0000000000	        0.0000000000	        0.0000000000	        0.0000000000	        0.0000000000	        0.0000000000	        0.0000000000	        0.0000000000	
        0.2379655647	      -30.8405373558	      581.5727869767	      -18.2574430456	        0.3071084365	        0.0000000000	        0.0507008628	       -1.0466249408	        0.4463732681	        0.0681450236	        0.0000000000	        0.0000000000	        0.0000000000	        0.0000000000	        0.0000000000	        0.0000000000	        0.0000000000	        0.0000000000	        0.0000000000	
        0.2511858738	      -25.9842524398	      577.7963944776	      -17.8778541700	        0.3121288306	        0.0000000000	        0.0505722332	       -1.1608773919	        0.4870158611	        0.0716807006	        0.0000000000	        0.0000000000	        0.0000000000	        0.0000000000	        0.0000000000	        0.0000000000	        0.0000000000	        0.0000000000	        0.0000000000	
        0.2644061830	      -21.7515967311	      574.8337095054	      -17.9677010282	        0.3173936154	        0.0000000000	        0.0503689544	       -1.3019147539	        0.5381067697	        0.0755666940	        0.0000000000	        0.0000000000	        0.0000000000	        0.0000000000	        0.0000000000	        0.0000000000	        0.0000000000	        0.0000000000	        0.0000000000	
        0.2776264921	      -17.6395017980	      571.9220752771	      -18.3245382899	        0.3227532024	        0.0000000000	        0.0501172146	       -1.4425013037	        0.5884865885	        0.0786864313	        0.0000000000	        0.0000000000	        0.0000000000	        0.0000000000	        0.0000000000	        0.0000000000	        0.0000000000	        0.0000000000	        0.0000000000	
        0.2908468013	      -13.5371114993	      568.6834612661	      -18.6606559034	        0.3282007333	        0.0000000000	        0.0498282424	       -1.5505908343	        0.6255935615	        0.0796379435	        0.0000000000	        0.0000000000	        0.0000000000	        0.0000000000	        0.0000000000	        0.0000000000	        0.0000000000	        0.0000000000	        0.0000000000	
        0.3040671104	       -9.5318481349	      565.0033025187	      -18.6209172738	        0.3336619173	        0.0000000000	        0.0495200757	       -1.5976864891	        0.6387337379	        0.0770076928	        0.0000000000	        0.0000000000	        0.0000000000	        0.0000000000	        0.0000000000	        0.0000000000	        0.0000000000	        0.0000000000	        0.0000000000	
        0.3172874196	       -5.4323580757	      560.6604360564	      -18.5494198875	        0.3390659410	        0.0000000000	        0.0492021616	       -1.5763988280	        0.6255230913	        0.0702999749	        0.0000000000	        0.0000000000	        0.0000000000	        0.0000000000	        0.0000000000	        0.0000000000	        0.0000000000	        0.0000000000	        0.0000000000	
